<?xml version="1.0" encoding="UTF-8"?>
<svg id="Camada_2" data-name="Camada 2" xmlns="http://www.w3.org/2000/svg" viewBox="0 0 670.07 253.15">
  <defs>
    <style>
      .cls-1 {
        fill: #333;
      }

      .cls-2 {
        fill: #3dc3ca;
        fill-rule: evenodd;
      }
    </style>
  </defs>
  <g id="Camada_1-2" data-name="Camada 1">
    <g>
      <path class="cls-2" d="M134.31,.26c66.3,4,118.83,59.02,118.83,126.33s-56.67,126.57-126.57,126.57S0,196.48,0,126.58c0-17.27,3.47-33.73,9.73-48.73,1.95-4.68,4.93-7.77,8.21-9.49,4.7-2.46,13.13-2.05,16.04,2.97,2.03,3.51,1.26,8.39-.71,12.71-5.91,12.95-9.22,27.36-9.22,42.54,0,56.63,45.9,102.53,102.53,102.53s102.53-45.9,102.53-102.53S186.14,27.06,132.08,24.2c-13.42-.66-28.33,1.77-41.11,6.35V126.58s0,.08,0,.08v.28h0c.19,19.5,16.06,35.25,35.6,35.25s35.61-15.94,35.61-35.61-14.74-34.38-33.35-35.54c-8.09-.5-12.06-6.23-11.89-12.32,.16-5.83,4.13-12.04,11.9-11.75,31.89,1.18,57.38,27.42,57.38,59.61s-26.71,59.65-59.65,59.65-58.63-25.7-59.62-57.77h-.02v-1.15c0-.24,0-.49,0-.73s0-.49,0-.73V14.93c7.58-4.06,15.63-7.37,24.03-9.83v.07C105.24,1.02,119.15-.68,134.31,.25h0Z"/>
      <g>
        <g>
          <path class="cls-2" d="M520.71,138.09v33.82c0,1.6-.55,2.96-1.66,4.07-1.11,1.11-2.46,1.66-4.07,1.66s-2.96-.56-4.07-1.66c-1.11-1.11-1.66-2.46-1.66-4.07V63.98c0-1.6,.55-2.96,1.66-4.07,1.11-1.11,2.46-1.66,4.07-1.66s2.96,.56,4.07,1.66c1.11,1.11,1.66,2.46,1.66,4.07v62.84l38.26-38.63c1.11-1.11,2.46-1.66,4.07-1.66s2.96,.55,4.07,1.66c1.11,1.11,1.66,2.46,1.66,4.07s-.55,2.96-1.66,4.07l-35.86,36.04,36.04,35.49c1.11,1.11,1.67,2.46,1.67,4.06s-.56,2.96-1.67,4.07c-1.11,1.11-2.46,1.66-4.07,1.66s-2.96-.56-4.07-1.66l-38.44-37.89h0Z"/>
          <path class="cls-2" d="M327.94,88.19c5.91,0,11.55,1.2,16.91,3.61,5.36,2.4,10.07,5.64,14.14,9.7,4.07,4.07,7.3,8.81,9.7,14.23,2.4,5.42,3.6,11.21,3.6,17.37s-1.17,11.74-3.51,17.1c-2.34,5.36-5.51,10.07-9.52,14.14-4,4.07-8.72,7.27-14.14,9.61-5.42,2.34-11.28,3.51-17.56,3.51s-11.92-1.11-17.28-3.33c-5.36-2.22-10.07-5.3-14.14-9.24-4.07-3.94-7.27-8.62-9.61-14.05-2.34-5.42-3.51-11.33-3.51-17.74V63.98c0-1.6,.55-2.96,1.66-4.07,1.11-1.11,2.46-1.66,4.07-1.66s2.96,.56,4.07,1.66c1.11,1.11,1.66,2.46,1.66,4.07v41.03c4.07-4.43,8.93-8.29,14.6-11.55,5.67-3.27,11.95-5.02,18.85-5.27h0Zm-33.45,44.91c0,4.56,.86,8.84,2.59,12.84,1.73,4,4.1,7.52,7.11,10.54,3.02,3.02,6.53,5.39,10.53,7.11,4.01,1.73,8.29,2.59,12.85,2.59s8.87-.86,12.94-2.59c4.07-1.72,7.61-4.1,10.63-7.11,3.02-3.02,5.39-6.53,7.11-10.54,1.72-4,2.59-8.28,2.59-12.84s-.86-8.87-2.59-12.94c-1.72-4.07-4.1-7.61-7.11-10.63-3.02-3.02-6.56-5.39-10.63-7.11-4.07-1.73-8.38-2.59-12.94-2.59s-8.63,.83-12.57,2.5c-3.94,1.66-7.39,3.97-10.35,6.93-2.96,2.96-5.36,6.47-7.21,10.53-1.85,4.07-2.84,8.5-2.96,13.31Z"/>
          <path class="cls-2" d="M384.49,63.98c0-1.6,.56-2.95,1.66-4.06,1.11-1.11,2.46-1.67,4.06-1.67s2.96,.56,4.07,1.67c1.11,1.11,1.66,2.46,1.66,4.06v107.94c0,1.6-.56,2.96-1.66,4.07s-2.46,1.66-4.07,1.66-2.96-.56-4.06-1.66-1.66-2.46-1.66-4.07V63.98Z"/>
          <path class="cls-2" d="M493.62,115.98c-2.33-5.47-5.52-10.18-9.58-14.24-4-4.05-8.77-7.24-14.24-9.53-5.42-2.33-11.2-3.5-17.33-3.5s-11.55,1.12-16.82,3.34c-5.27,2.23-9.93,5.32-13.88,9.32-3.95,3.95-7.19,8.66-9.63,14.09-2.48,5.47-3.8,11.4-4,17.83,0,6.13,1.17,11.86,3.5,17.23,2.28,5.37,5.47,10.08,9.53,14.09,4.05,4.05,8.77,7.25,14.09,9.58,5.37,2.28,11.15,3.44,17.23,3.44s11.91-1.17,17.33-3.44c5.47-2.33,10.23-5.52,14.24-9.58,4.05-4,7.25-8.72,9.58-14.09,2.28-5.37,3.45-11.1,3.45-17.23s-1.17-11.91-3.45-17.33Zm-10.44,30.15c-1.72,4-4.1,7.5-7.09,10.54-3.04,3.04-6.59,5.37-10.64,7.09-4.05,1.72-8.36,2.58-12.92,2.58s-8.87-.86-12.87-2.58c-4-1.72-7.5-4.05-10.54-7.09-2.99-3.04-5.37-6.54-7.09-10.54-1.72-4-2.58-8.31-2.58-12.87,.1-4.76,1.11-9.22,2.94-13.27,1.87-4.05,4.26-7.6,7.19-10.54,2.99-2.94,6.43-5.27,10.39-6.94,3.95-1.67,8.11-2.48,12.57-2.48s8.87,.86,12.92,2.58c4.05,1.72,7.6,4.1,10.64,7.09,2.99,3.04,5.37,6.59,7.09,10.64,1.72,4.05,2.58,8.41,2.58,12.92s-.86,8.87-2.58,12.87Z"/>
          <path class="cls-2" d="M666.62,115.98c-2.33-5.47-5.52-10.18-9.58-14.24-4-4.05-8.77-7.24-14.24-9.53-5.42-2.33-11.2-3.5-17.33-3.5s-11.55,1.12-16.82,3.34c-5.27,2.23-9.93,5.32-13.88,9.32-3.95,3.95-7.19,8.66-9.63,14.09-2.48,5.47-3.8,11.4-4,17.83,0,6.13,1.17,11.86,3.5,17.23,2.28,5.37,5.47,10.08,9.53,14.09,4.05,4.05,8.77,7.25,14.09,9.58,5.37,2.28,11.15,3.44,17.23,3.44s11.91-1.17,17.33-3.44c5.47-2.33,10.23-5.52,14.24-9.58,4.05-4,7.25-8.72,9.58-14.09,2.28-5.37,3.45-11.1,3.45-17.23s-1.17-11.91-3.45-17.33Zm-10.44,30.15c-1.72,4-4.1,7.5-7.09,10.54-3.04,3.04-6.59,5.37-10.64,7.09-4.05,1.72-8.36,2.58-12.92,2.58s-8.87-.86-12.87-2.58c-4-1.72-7.5-4.05-10.54-7.09-2.99-3.04-5.37-6.54-7.09-10.54-1.72-4-2.58-8.31-2.58-12.87,.1-4.76,1.11-9.22,2.94-13.27,1.87-4.05,4.26-7.6,7.19-10.54,2.99-2.94,6.43-5.27,10.39-6.94,3.95-1.67,8.11-2.48,12.57-2.48s8.87,.86,12.92,2.58c4.05,1.72,7.6,4.1,10.64,7.09,2.99,3.04,5.37,6.59,7.09,10.64,1.72,4.05,2.58,8.41,2.58,12.92s-.86,8.87-2.58,12.87Z"/>
        </g>
        <g>
          <path class="cls-1" d="M390.89,197.92c6.09,0,10.38,3.78,10.38,9.81s-4.28,9.65-10.15,9.65h-6.51v-19.47h6.28Zm.17,17.96c4.76,0,8.6-2.75,8.6-8.15s-3.78-8.32-8.82-8.32h-4.64v16.46h4.86Z"/>
          <path class="cls-1" d="M406.1,197.92h1.59v19.47h-1.59v-19.47Z"/>
          <path class="cls-1" d="M430.19,217.39c0-2.53,.03-2.95,.03-3.22h-.03c-.92,1.17-3.39,3.56-7.7,3.56-5.53,0-9.96-3.98-9.96-10.1s4.37-10.1,10.04-10.1c4.47,0,7.56,2.42,8.79,5.23l-1.56,.44c-.58-1.2-2.56-4.14-7.23-4.14s-8.43,3.26-8.43,8.54,3.7,8.62,8.43,8.62c3.95,0,6.76-2.31,7.59-3.92v-3.28h-6.06v-1.5h7.57v9.87h-1.48Z"/>
          <path class="cls-1" d="M437.14,197.92h1.59v19.47h-1.59v-19.47Z"/>
          <path class="cls-1" d="M451.99,199.42v17.97h-1.61v-17.97h-6.9v-1.5h15.41v1.5h-6.9Z"/>
          <path class="cls-1" d="M463.2,211.69l-2.48,5.7h-1.69l8.51-19.47h1.69l8.48,19.47h-1.73l-2.47-5.7h-10.32Zm7.34-6.9c-.78-1.81-2.12-5-2.14-5.03h-.05s-1.36,3.2-2.14,5l-2.36,5.45h9.07l-2.36-5.43Z"/>
          <path class="cls-1" d="M482.13,197.92h1.59v17.96h10.68v1.5h-12.26v-19.47Z"/>
          <path class="cls-1" d="M507.75,211.77c.17,3.17,2.75,4.5,5.98,4.5s5.04-1.28,5.04-3.92c0-3.56-3.48-3.79-5.9-4.34-2.67-.58-6.06-1.48-6.06-5.34,0-3.23,2.34-5.15,6.34-5.15,3.53,0,6.15,1.47,6.95,4.78l-1.55,.42c-.56-2.36-2.26-3.75-5.4-3.75s-4.73,1.39-4.73,3.61c0,2.84,2.62,3.51,5.4,4.06,2.92,.56,6.56,1.36,6.56,5.67,0,3.59-2.48,5.4-6.7,5.4-3.22,0-6.95-1.09-7.45-5.53l1.53-.42Z"/>
          <path class="cls-1" d="M533.97,197.53c5.59,0,10.04,4,10.04,10.1s-4.45,10.1-10.04,10.1-10.04-4.01-10.04-10.1,4.42-10.1,10.04-10.1Zm0,18.69c4.67,0,8.42-3.22,8.42-8.59s-3.75-8.57-8.42-8.57-8.43,3.26-8.43,8.57,3.73,8.59,8.43,8.59Z"/>
          <path class="cls-1" d="M548.85,197.92h1.59v17.96h10.68v1.5h-12.26v-19.47Z"/>
          <path class="cls-1" d="M579.74,209.41c0,5.42-2.56,8.32-7.59,8.32s-7.6-2.89-7.6-8.32v-11.49h1.64v11.54c0,4.48,1.86,6.76,5.95,6.76s5.98-2.28,5.98-6.76v-11.54h1.61v11.49Z"/>
          <path class="cls-1" d="M592.73,199.42v17.97h-1.61v-17.97h-6.9v-1.5h15.41v1.5h-6.9Z"/>
          <path class="cls-1" d="M604.41,197.92h1.59v19.47h-1.59v-19.47Z"/>
          <path class="cls-1" d="M620.88,197.53c5.59,0,10.04,4,10.04,10.1s-4.45,10.1-10.04,10.1-10.04-4.01-10.04-10.1,4.42-10.1,10.04-10.1Zm0,18.69c4.67,0,8.42-3.22,8.42-8.59s-3.75-8.57-8.42-8.57-8.43,3.26-8.43,8.57,3.73,8.59,8.43,8.59Z"/>
          <path class="cls-1" d="M637.31,200.4h-.06s.09,2.22,.09,4.62v12.38h-1.59v-19.47h1.61l12.26,16.85h.03s-.05-2.22-.05-4.53v-12.32h1.59v19.47h-1.61l-12.26-16.99Z"/>
          <path class="cls-1" d="M657.44,211.77c.17,3.17,2.75,4.5,5.98,4.5s5.04-1.28,5.04-3.92c0-3.56-3.48-3.79-5.9-4.34-2.67-.58-6.06-1.48-6.06-5.34,0-3.23,2.34-5.15,6.34-5.15,3.53,0,6.15,1.47,6.95,4.78l-1.56,.42c-.55-2.36-2.25-3.75-5.39-3.75s-4.73,1.39-4.73,3.61c0,2.84,2.62,3.51,5.4,4.06,2.92,.56,6.56,1.36,6.56,5.67,0,3.59-2.48,5.4-6.7,5.4-3.22,0-6.95-1.09-7.45-5.53l1.53-.42Z"/>
        </g>
      </g>
    </g>
  </g>
</svg>