<?xml version="1.0" encoding="UTF-8"?>
<svg id="Camada_2" data-name="Camada 2" xmlns="http://www.w3.org/2000/svg" viewBox="0 0 417.45 417.47">
  <defs>
    <style>
      .cls-1 {
        fill: #3dc3ca;
        fill-rule: evenodd;
      }
    </style>
  </defs>
  <g id="Camada_1-2" data-name="Camada 1">
    <path class="cls-1" d="M221.48,.42c109.33,6.6,195.96,97.33,195.96,208.32s-93.45,208.72-208.72,208.72S0,324.02,0,208.75c0-28.48,5.72-55.63,16.04-80.36,3.22-7.72,8.14-12.82,13.54-15.65,7.75-4.06,21.66-3.38,26.44,4.89,3.35,5.79,2.08,13.84-1.17,20.96-9.75,21.36-15.21,45.13-15.21,70.16,0,93.38,75.7,169.08,169.08,169.08s169.08-75.7,169.08-169.08S306.97,44.63,217.81,39.91c-22.13-1.09-46.72,2.92-67.8,10.47V208.75s0,.14,0,.14v.46h0c.32,32.16,26.48,58.13,58.71,58.13s58.72-26.29,58.72-58.72-24.3-56.69-55-58.6c-13.34-.83-19.89-10.28-19.61-20.32,.27-9.61,6.8-19.85,19.63-19.38,52.59,1.95,94.63,45.22,94.63,98.3s-44.04,98.37-98.37,98.37-96.68-42.38-98.31-95.28h-.04v-1.89c0-.4-.01-.8-.01-1.2s.01-.8,.01-1.2V24.62c12.51-6.7,25.77-12.16,39.63-16.21v.11C173.55,1.68,196.49-1.13,221.48,.41v.02Z"/>
  </g>
</svg>